<svg xmlns="http://www.w3.org/2000/svg" fill="none" viewBox="-1 -1 24 24" id="App-Window-Clock--Streamline-Ultimate"><desc>App Window Clock Streamline Icon: https://streamlinehq.com</desc><path stroke="#000000" stroke-linecap="round" stroke-linejoin="round" d="M19.949416666666668 7.565185833333333v-5.5c0 -0.3646775 -0.14483333333333334 -0.7144133333333333 -0.40269166666666667 -0.9722716666666665 -0.2578583333333333 -0.25786291666666666 -0.6076583333333333 -0.4027283333333333 -0.9723083333333332 -0.4027283333333333h-16.5c-0.3646683333333333 0 -0.7144133333333333 0.14486541666666666 -0.9722716666666665 0.4027283333333333C0.8442829999999999 1.3507725 0.6994166666666667 1.7005083333333333 0.6994166666666667 2.0651858333333335V17.190158333333333c0 0.36474166666666663 0.14486633333333335 0.7144499999999999 0.4027283333333333 0.9723083333333332 0.2578583333333333 0.2578583333333333 0.6076033333333333 0.40269166666666667 0.9722716666666665 0.40269166666666667h5.5" stroke-width="2"></path><path stroke="#000000" stroke-linecap="round" stroke-linejoin="round" d="M0.6994166666666667 4.8151858333333335h19.25" stroke-width="2"></path><path stroke="#000000" stroke-linecap="round" stroke-linejoin="round" d="M10.321666666666665 15.815158333333333c0 0.7223333333333334 0.14226666666666665 1.4375166666666666 0.41864166666666663 2.1047583333333333 0.27646666666666664 0.6673333333333333 0.6815416666666667 1.2736166666666666 1.1923083333333333 1.7843833333333334 0.510675 0.510675 1.1170499999999999 0.9158416666666667 1.7842916666666666 1.1922166666666667 0.6673333333333333 0.276375 1.3825166666666666 0.41864166666666663 2.1047583333333333 0.41864166666666663s1.4375166666666666 -0.14226666666666665 2.1047583333333333 -0.41864166666666663c0.6673333333333333 -0.276375 1.2736166666666666 -0.6815416666666667 1.7843833333333334 -1.1922166666666667 0.510675 -0.5107666666666667 0.9158416666666667 -1.1170499999999999 1.1922166666666667 -1.7843833333333334 0.276375 -0.6672416666666666 0.41864166666666663 -1.382425 0.41864166666666663 -2.1047583333333333 0 -0.7222416666666667 -0.14226666666666665 -1.437425 -0.41864166666666663 -2.1047583333333333 -0.276375 -0.6672416666666666 -0.6815416666666667 -1.2736166666666666 -1.1923083333333333 -1.7842916666666666 -0.510675 -0.5107666666666667 -1.1169583333333333 -0.9158416666666667 -1.7842916666666666 -1.1922166666666667 -0.6672416666666666 -0.27646666666666664 -1.3825166666666666 -0.4187333333333333 -2.1047583333333333 -0.4187333333333333s-1.437425 0.14226666666666665 -2.1047583333333333 0.4187333333333333c-0.6672416666666666 0.276375 -1.2736166666666666 0.6814499999999999 -1.7842916666666666 1.1922166666666667 -0.5107666666666667 0.510675 -0.9158416666666667 1.1170499999999999 -1.1923083333333333 1.7842916666666666 -0.276375 0.6673333333333333 -0.41864166666666663 1.3825166666666666 -0.41864166666666663 2.1047583333333333Z" stroke-width="2"></path><path stroke="#000000" stroke-linecap="round" stroke-linejoin="round" d="M18.252666666666666 15.815341666666665H15.821666666666667v-2.430083333333333" stroke-width="2"></path></svg>