<svg xmlns="http://www.w3.org/2000/svg" fill="none" viewBox="-1 -1 24 24" id="Common-File-Edit--Streamline-Ultimate"><desc>Common File Edit Streamline Icon: https://streamlinehq.com</desc><path stroke="#000000" stroke-linecap="round" stroke-linejoin="round" d="M20.744166666666665 13.630833333333332 13.75 20.625l-3.4375 0.6875 0.6875 -3.4375 6.994166666666667 -6.994166666666667c0.17994166666666667 -0.18030833333333335 0.3937083333333333 -0.3233083333333333 0.6290166666666667 -0.42084166666666667 0.2353083333333333 -0.09762499999999999 0.48757500000000004 -0.1478583333333333 0.7423166666666666 -0.1478583333333333 0.25474166666666664 0 0.5070083333333334 0.05023333333333333 0.7423166666666666 0.1478583333333333 0.2353083333333333 0.09753333333333332 0.449075 0.24053333333333335 0.6290166666666667 0.42084166666666667l0.007333333333333333 0.007333333333333333c0.18030833333333335 0.17994166666666667 0.3233083333333333 0.3937083333333333 0.42084166666666667 0.6290166666666667 0.09762499999999999 0.2353083333333333 0.1478583333333333 0.48757500000000004 0.1478583333333333 0.7423166666666666 0 0.25474166666666664 -0.05023333333333333 0.5070083333333334 -0.1478583333333333 0.7422249999999999 -0.09753333333333332 0.2353083333333333 -0.24053333333333335 0.449075 -0.42084166666666667 0.6291083333333334Z" stroke-width="2"></path><path stroke="#000000" stroke-linecap="round" stroke-linejoin="round" d="M7.5625 18.5625h-5.5c-0.3646683333333333 0 -0.7144133333333333 -0.14483333333333334 -0.9722716666666665 -0.40269166666666667C0.8323654166666666 17.90195 0.6875 17.55215 0.6875 17.1875V2.0625c0 -0.3646683333333333 0.14486541666666666 -0.7144133333333333 0.4027283333333333 -0.9722716666666665C1.3480866666666667 0.8323654166666666 1.6978316666666666 0.6875 2.0625 0.6875h9.74325c0.364375 0.00007791666666666667 0.7139 0.14481683333333334 0.9716666666666667 0.40241666666666664l2.6326666666666663 2.6326666666666663c0.25758333333333333 0.25776666666666664 0.402325 0.6072458333333333 0.40241666666666664 0.9716666666666667V7.5625" stroke-width="2"></path></svg>